<?xml version="1.0" encoding="utf-8"?><svg viewBox="0 0 24 24" xmlns="http://www.w3.org/2000/svg" xmlns:xlink="http://www.w3.org/1999/xlink"><style>:root>svg{display:none}:root>svg:target{display:block}</style><svg xml:space="preserve" style="enable-background:new 0 0 24 24" viewBox="0 0 24 24" id="top" xmlns="http://www.w3.org/2000/svg"><path d="M12.9 4.2v18c0 .2-.1.4-.2.6-.2.1-.5.2-.7.2s-.5-.1-.7-.2c-.2-.2-.2-.4-.2-.6v-18l-6.5 7c-.2.2-.4.2-.7.2-.2 0-.5-.2-.7-.3s-.2-.4-.2-.6.1-.5.2-.7l8.1-8.6c.2-.1.5-.2.7-.2s.5.1.7.2l8.1 8.6c.2.2.2.4.2.7 0 .2-.1.5-.2.7-.2.2-.4.2-.7.2-.2 0-.5-.1-.7-.2l-6.5-7z"/></svg><svg xml:space="preserve" style="enable-background:new 0 0 24 24" viewBox="0 0 24 24" id="user" xmlns="http://www.w3.org/2000/svg"><path d="M12 14c1.9-.1 3.4-.7 4.6-1.9 1.2-1.2 1.8-2.7 1.9-4.6 0-1.9-.7-3.4-1.9-4.6C15.4 1.7 13.9 1.1 12 1c-1.8 0-3.4.7-4.6 1.9-1.2 1.2-1.8 2.7-1.9 4.6 0 1.8.7 3.4 1.9 4.6 1.2 1.2 2.7 1.8 4.6 1.9zM8.5 4c.9-1 2-1.5 3.5-1.5s2.6.5 3.5 1.5c1 .9 1.5 2 1.5 3.5s-.5 2.6-1.5 3.5c-.9 1-2 1.5-3.5 1.5-1.5-.1-2.5-.6-3.5-1.5S7 9 7 7.5 7.6 5 8.5 4zm12.3 13c-.7-.7-1.7-1-2.9-1H6.1c-1.2 0-2.2.4-2.9 1-.7.8-1.2 1.6-1.2 2.8v2.4c0 .2 0 .4.2.6.1.1.3.2.6.2s.5-.1.7-.3c.2-.2.3-.3.3-.6v-2.4c0-.5.3-1.1.7-1.6.4-.4 1-.7 1.7-.7h11.6c.7 0 1.3.3 1.7.7.4.4.7 1 .7 1.6v2.4c0 .3.1.4.3.6.2.2.4.3.7.3.3 0 .5-.1.6-.3.2-.2.2-.4.2-.6v-2.4c0-1.1-.5-1.9-1.2-2.7z"/></svg></svg>